<?xml version="1.0" encoding="UTF-8" standalone="no"?>
<!-- Generator: Adobe Illustrator 25.2.3, SVG Export Plug-In . SVG Version: 6.00 Build 0)  -->

<svg
   version="1.1"
   id="Layer_1"
   x="0px"
   y="0px"
   viewBox="0 0 433 376"
   xml:space="preserve"
   sodipodi:docname="prototype-logo.svg"
   inkscape:version="1.2.2 (b0a8486, 2022-12-01)"
   width="433"
   height="376"
   xmlns:inkscape="http://www.inkscape.org/namespaces/inkscape"
   xmlns:sodipodi="http://sodipodi.sourceforge.net/DTD/sodipodi-0.dtd"
   xmlns="http://www.w3.org/2000/svg"
   xmlns:svg="http://www.w3.org/2000/svg"><defs
   id="defs203" /><sodipodi:namedview
   id="namedview201"
   pagecolor="#ffffff"
   bordercolor="#000000"
   borderopacity="0.25"
   inkscape:showpageshadow="2"
   inkscape:pageopacity="0.0"
   inkscape:pagecheckerboard="0"
   inkscape:deskcolor="#d1d1d1"
   showgrid="false"
   inkscape:zoom="0.4665165"
   inkscape:cx="-192.91922"
   inkscape:cy="206.85228"
   inkscape:window-width="1390"
   inkscape:window-height="1051"
   inkscape:window-x="2399"
   inkscape:window-y="441"
   inkscape:window-maximized="0"
   inkscape:current-layer="Layer_1" />
<style
   type="text/css"
   id="style182">
	.st0{fill:#FFFFFF;}
</style>

<g
   id="g198"
   transform="translate(-263.51,-292)"
   style="fill:#ffffff;fill-opacity:1">
	<polygon
   points="504.85,535.06 516.79,537.94 538.37,459.74 663.02,383.29 676.04,364.82 672.15,363.32 532.49,448.93 287.47,392.26 281.06,396.62 287.18,404.81 525.57,459.95 "
   id="polygon186"
   style="fill:#ffffff;fill-opacity:1" />
	<g
   id="g196"
   style="fill:#ffffff;fill-opacity:1">
		<polygon
   points="483.92,658.63 548.69,566.77 467.34,547.16 466.48,546.96 482.98,659.97 483.92,658.63 "
   id="polygon188"
   style="fill:#ffffff;fill-opacity:1" />
		<g
   id="g194"
   style="fill:#ffffff;fill-opacity:1">
			<path
   d="m 683.65,354.03 v 0 L 433.02,293.62 v -0.02 l -6.72,-1.6 -7.59,4.7 0.01,0.07 -143.44,90.28 v 0 l -11.77,7.41 127.8,163.5 v 0 l 7.61,9.74 10.52,-6.49 44.25,-27.29 3.61,-2.22 8.79,2.12 77.63,18.71 12.84,3.1 139.95,-198.5 z M 401.89,551.43 282.8,396.83 420.67,310.05 451.73,520.69 Z m 149.34,-9.73 -33.27,-8.02 -11.95,-2.88 -41.73,-10.06 -29.47,-214.06 239.63,57.75 z"
   id="path190"
   style="fill:#ffffff;fill-opacity:1" />
			<path
   d="m 468.01,547.32 -8.67,-2.09 -52.62,32.45 70.59,90.32 6.61,-9.37 z m -43.16,33.61 32.68,-20.15 10.84,75.83 z"
   id="path192"
   style="fill:#ffffff;fill-opacity:1" />
		</g>
	</g>
</g>
</svg>
