<svg version="1.1" id="Layer_1" xmlns="http://www.w3.org/2000/svg" class="h-18 w-auto mx-auto"
    viewBox="0 0 425.2 425.2" style="width: 15rem;" xml:space="preserve">
    <style type="text/css">
        <![CDATA[
        .st0 {
            fill: #191919;
        }

        .st1 {
            fill: #B2B2B2;
        }

        .st2 {
            fill: #FFFFFF;
        }

        .st3 {
            fill: #666666;
        }

        ]]>
    </style>
    <path class="st2" d="M269.8,5.8L90.7,109.2v140.7l49.9,28.8l-49.9,28.8v74.6l64.6,37.3L334.5,316V175.3l-49.9-28.8l49.9-28.8V43.1
L269.8,5.8z M269.8,22.8l42.5,24.5l-157,90.7l-42.5-24.5L269.8,22.8z M105.5,241.4V126.2l42.5,24.5v115.2L105.5,241.4z M212.6,254.2
L212.6,254.2l42.5,24.5l-99.8,57.6l-42.5-24.6L212.6,254.2z M220,241.4v-49.1l42.5,24.5v49.1L220,241.4z M148,398.1l-42.5-24.5
v-49.1l42.5,24.6V398.1z M319.7,307.5l-157,90.6v-49.1v0L277.2,283v-66.1l42.5-24.5V307.5z M312.4,179.5l-42.5,24.5h0l-42.5-24.5
l42.5-24.5L312.4,179.5z M319.7,109.2l-114.5,66.1v66.1l-42.5,24.5V150.7l157-90.7V109.2z" /></svg>
