<?xml version="1.0" encoding="UTF-8" standalone="no"?>
<!-- Generator: Adobe Illustrator 16.0.0, SVG Export Plug-In . SVG Version: 6.00 Build 0)  -->

<svg
   version="1.1"
   id="Layer_1"
   x="0px"
   y="0px"
   width="425.2px"
   height="425.2px"
   viewBox="0 0 425.2 425.2"
   style="enable-background:new 0 0 425.2 425.2;"
   xml:space="preserve"
   sodipodi:docname="streams-logo.svg"
   inkscape:version="1.2.2 (b0a8486, 2022-12-01)"
   xmlns:inkscape="http://www.inkscape.org/namespaces/inkscape"
   xmlns:sodipodi="http://sodipodi.sourceforge.net/DTD/sodipodi-0.dtd"
   xmlns="http://www.w3.org/2000/svg"
   xmlns:svg="http://www.w3.org/2000/svg"><defs
   id="defs790" /><sodipodi:namedview
   id="namedview788"
   pagecolor="#ffffff"
   bordercolor="#000000"
   borderopacity="0.25"
   inkscape:showpageshadow="2"
   inkscape:pageopacity="0.0"
   inkscape:pagecheckerboard="0"
   inkscape:deskcolor="#d1d1d1"
   showgrid="false"
   inkscape:zoom="0.55503291"
   inkscape:cx="-211.69916"
   inkscape:cy="212.60001"
   inkscape:window-width="1309"
   inkscape:window-height="456"
   inkscape:window-x="0"
   inkscape:window-y="38"
   inkscape:window-maximized="0"
   inkscape:current-layer="Layer_1" />
<style
   type="text/css"
   id="style783">
<![CDATA[
	.st0{fill:#191919;}
	.st1{fill:#B2B2B2;}
	.st2{fill:#FFFFFF;}
	.st3{fill:#666666;}
]]>
</style>
<path
   class="st2"
   d="M269.8,5.8L90.7,109.2v140.7l49.9,28.8l-49.9,28.8v74.6l64.6,37.3L334.5,316V175.3l-49.9-28.8l49.9-28.8V43.1  L269.8,5.8z M269.8,22.8l42.5,24.5l-157,90.7l-42.5-24.5L269.8,22.8z M105.5,241.4V126.2l42.5,24.5v115.2L105.5,241.4z M212.6,254.2  L212.6,254.2l42.5,24.5l-99.8,57.6l-42.5-24.6L212.6,254.2z M220,241.4v-49.1l42.5,24.5v49.1L220,241.4z M148,398.1l-42.5-24.5  v-49.1l42.5,24.6V398.1z M319.7,307.5l-157,90.6v-49.1v0L277.2,283v-66.1l42.5-24.5V307.5z M312.4,179.5l-42.5,24.5h0l-42.5-24.5  l42.5-24.5L312.4,179.5z M319.7,109.2l-114.5,66.1v66.1l-42.5,24.5V150.7l157-90.7V109.2z"
   id="path785"
   style="fill:#ffffff" />
</svg>
