<svg fill="#yellow" height='100px' width='100px' xmlns="http://www.w3.org/2000/svg" data-name="Layer 1" viewBox="0 0 32 32" x="0px" y="0px"><title>Transfer, Copy, Copy file, Paste, interface</title><path d="M29.79,6.5H27A1.5,1.5,0,0,1,25.5,5V2.21Z"></path><path d="M10.5,19a.5.5,0,0,0,.5.5h9.5V29A1.5,1.5,0,0,1,19,30.5H3A1.5,1.5,0,0,1,1.5,29V7A1.5,1.5,0,0,1,3,5.5H14.5V9A2.5,2.5,0,0,0,17,11.5h3.5v7H11A.5.5,0,0,0,10.5,19Z"></path><path d="M19.79,10.5H17A1.5,1.5,0,0,1,15.5,9V6.21Z"></path><path d="M30.5,7.5V25A1.5,1.5,0,0,1,29,26.5H21.5v-7h4.29l-.79.8-.35.35a.48.48,0,0,0,0,.7.48.48,0,0,0,.7,0l1.93-1.93.07-.07a.42.42,0,0,0,.11-.15h0a.47.47,0,0,0,0-.38h0a.42.42,0,0,0-.11-.15l-.07-.07-1.93-1.93a.49.49,0,0,0-.7.7l.35.35.79.8H21.5V11a.49.49,0,0,0-.15-.35l-6-6A.47.47,0,0,0,15,4.5H11.5V3A1.5,1.5,0,0,1,13,1.5H24.5V5A2.5,2.5,0,0,0,27,7.5Z"></path></svg>